<svg width="34.975685" height="34.930092" viewBox="0 0 34.9757 34.9301" fill="none" xmlns="http://www.w3.org/2000/svg" xmlns:xlink="http://www.w3.org/1999/xlink">
	<desc>
			Created with Pixso.
	</desc>
	<defs/>
	<path id="Vector" d="M0.05 26.92C0.6 31.49 6.09 34.93 12.83 34.93C18.88 34.93 24.03 32.13 25.34 28.12L25.34 28.12C25.55 27.5 25.65 26.85 25.66 26.2C25.65 26.01 25.64 25.81 25.62 25.62L25.61 25.55L25.61 25.55C25.37 23.83 24.52 22.25 23.2 21.1C24.7 21.76 26.31 22.11 27.94 22.14C29.3 22.17 30.64 21.83 31.82 21.17L31.82 21.17C32.28 20.91 32.69 20.59 33.07 20.23C33.35 19.94 33.6 19.63 33.81 19.29L33.81 19.29C36.27 15.59 34.7 9.36 30.15 4.81C25.94 0.6 20.15 -1.12 16.38 0.74C15.78 1.03 15.23 1.42 14.75 1.89C14.57 2.07 14.41 2.26 14.26 2.46L14.26 2.46C11.46 6.07 12.95 12.6 17.66 17.31C18.13 17.77 18.62 18.21 19.13 18.63C17.12 17.86 14.98 17.47 12.83 17.48C6.81 17.48 1.53 20.37 0.28 24.36C0.09 24.95 0 25.58 0 26.2C0 26.44 0.02 26.69 0.05 26.92L0.05 26.92ZM12.83 33.76C7.15 33.76 2.31 31.06 1.35 27.5C1.37 27.5 1.39 27.51 1.42 27.51C1.62 27.53 1.82 27.56 2.01 27.59C2.03 27.59 2.06 27.6 2.09 27.6C2.26 27.63 2.42 27.66 2.58 27.69C2.61 27.7 2.64 27.7 2.66 27.71C2.83 27.75 3 27.78 3.16 27.82C3.2 27.83 3.23 27.84 3.26 27.85C3.42 27.89 3.57 27.93 3.73 27.97C5.23 28.4 6.79 28.6 8.35 28.57C9.91 28.6 11.47 28.4 12.97 27.97C14.38 27.56 15.84 27.37 17.3 27.4C18.76 27.37 20.22 27.56 21.62 27.97C21.77 28.01 21.92 28.04 22.07 28.08C22.1 28.09 22.14 28.1 22.17 28.11C22.33 28.15 22.5 28.19 22.67 28.22C22.69 28.23 22.71 28.23 22.73 28.24C22.89 28.27 23.05 28.3 23.22 28.33C23.25 28.34 23.28 28.34 23.31 28.35C23.5 28.38 23.7 28.41 23.9 28.44C23.92 28.44 23.94 28.44 23.96 28.44C22.45 31.56 17.93 33.76 12.83 33.76ZM29.33 5.64C33.15 9.46 34.75 14.69 33.22 17.97C33.2 17.95 33.19 17.94 33.17 17.92C33.02 17.74 32.87 17.56 32.75 17.39C32.73 17.38 32.73 17.36 32.71 17.35C32.59 17.19 32.48 17.03 32.38 16.88C32.36 16.86 32.34 16.83 32.33 16.81C32.22 16.65 32.12 16.5 32.03 16.35C32.01 16.32 31.99 16.29 31.97 16.26C31.88 16.11 31.79 15.97 31.7 15.82C30.92 14.46 29.94 13.23 28.8 12.17C27.7 11.06 26.44 10.12 25.07 9.38C23.78 8.7 22.6 7.82 21.57 6.78C20.5 5.78 19.59 4.63 18.86 3.36C18.79 3.24 18.71 3.12 18.63 2.99L18.58 2.9C18.49 2.76 18.41 2.63 18.32 2.49C18.31 2.48 18.3 2.46 18.29 2.44C18.2 2.32 18.12 2.19 18.02 2.06C18 2.03 17.98 2 17.96 1.97C17.85 1.83 17.74 1.68 17.62 1.53C17.61 1.52 17.61 1.51 17.6 1.5C20.93 0.37 25.72 2.03 29.33 5.64ZM15.57 2.72C15.85 2.44 16.17 2.2 16.5 2C16.51 2.01 16.52 2.02 16.53 2.03C16.66 2.19 16.78 2.34 16.89 2.49C16.9 2.51 16.92 2.53 16.94 2.56C17.05 2.7 17.15 2.85 17.25 2.99C17.26 3.02 17.28 3.04 17.3 3.07C17.39 3.21 17.48 3.35 17.57 3.48C17.58 3.51 17.6 3.53 17.61 3.56C17.7 3.69 17.78 3.83 17.86 3.97C18.64 5.32 19.62 6.55 20.76 7.62C21.86 8.72 23.12 9.66 24.49 10.4C25.78 11.09 26.96 11.97 27.99 13.01C29.06 14 29.97 15.16 30.7 16.42C30.76 16.52 30.82 16.62 30.88 16.72C30.91 16.76 30.93 16.79 30.95 16.82C30.99 16.89 31.03 16.96 31.08 17.03C31.1 17.07 31.13 17.12 31.16 17.16C31.2 17.22 31.24 17.29 31.29 17.36C31.32 17.4 31.35 17.45 31.38 17.49C31.42 17.56 31.47 17.62 31.52 17.69C31.55 17.74 31.59 17.79 31.62 17.83C31.67 17.9 31.72 17.97 31.77 18.04C31.81 18.09 31.85 18.14 31.89 18.19C31.95 18.26 32 18.33 32.06 18.41C32.1 18.46 32.15 18.51 32.2 18.57C32.26 18.64 32.32 18.72 32.39 18.8C32.44 18.85 32.49 18.91 32.54 18.97C32.55 18.99 32.56 19 32.58 19.02C32.47 19.15 32.36 19.28 32.24 19.4C32.05 19.59 31.85 19.76 31.63 19.91L31.61 19.89C31.57 19.84 31.54 19.8 31.5 19.76C31.43 19.68 31.37 19.61 31.31 19.53C31.27 19.48 31.23 19.44 31.19 19.39C31.14 19.33 31.09 19.26 31.04 19.19C31 19.15 30.97 19.1 30.93 19.06C30.89 19 30.84 18.93 30.8 18.87C30.77 18.83 30.73 18.79 30.7 18.74C30.66 18.68 30.62 18.62 30.58 18.56C30.55 18.52 30.52 18.48 30.5 18.44C30.46 18.38 30.42 18.32 30.38 18.26C30.35 18.22 30.33 18.18 30.31 18.14C30.26 18.08 30.22 18.01 30.18 17.95C30.16 17.91 30.14 17.88 30.12 17.85C30.07 17.76 30.01 17.66 29.95 17.57C29.17 16.22 28.19 14.99 27.05 13.92C25.95 12.81 24.69 11.87 23.32 11.13C22.03 10.45 20.85 9.57 19.82 8.53C18.75 7.53 17.84 6.38 17.11 5.11C17.02 4.96 16.93 4.81 16.83 4.66C16.81 4.63 16.79 4.6 16.77 4.57C16.68 4.41 16.58 4.26 16.47 4.1C16.44 4.06 16.42 4.03 16.4 4C16.29 3.83 16.16 3.66 16.03 3.49C16.01 3.46 15.99 3.43 15.96 3.4C15.82 3.21 15.67 3.02 15.49 2.81L15.49 2.81C15.51 2.78 15.54 2.75 15.57 2.72ZM18.49 16.48C14.45 12.44 12.92 7.04 14.78 3.78C14.79 3.8 14.81 3.82 14.82 3.83C14.95 3.99 15.06 4.14 15.17 4.28C15.19 4.31 15.21 4.33 15.23 4.36C15.32 4.49 15.41 4.62 15.5 4.75C15.51 4.77 15.53 4.79 15.54 4.81C15.64 4.96 15.73 5.09 15.81 5.23C15.83 5.26 15.85 5.29 15.87 5.32C15.95 5.45 16.03 5.58 16.11 5.72C16.89 7.07 17.87 8.3 19.01 9.37C20.11 10.47 21.37 11.41 22.74 12.15C24.03 12.84 25.21 13.72 26.24 14.76C27.31 15.75 28.22 16.91 28.95 18.18C29.04 18.32 29.14 18.47 29.23 18.62C29.25 18.66 29.27 18.69 29.3 18.73C29.39 18.88 29.5 19.04 29.61 19.21C29.63 19.24 29.65 19.27 29.68 19.31C29.79 19.47 29.91 19.64 30.05 19.82L30.06 19.84C30.2 20.02 30.36 20.21 30.52 20.41C30.54 20.43 30.56 20.46 30.58 20.48C27.27 21.85 22.23 20.23 18.49 16.48ZM12.83 18.65C18.55 18.65 23.4 21.37 24.32 24.97C24.3 24.97 24.28 24.97 24.25 24.96C24.04 24.94 23.84 24.91 23.65 24.88C23.63 24.88 23.6 24.88 23.58 24.87C23.41 24.84 23.24 24.81 23.08 24.78C23.05 24.77 23.02 24.77 22.99 24.76C22.82 24.72 22.66 24.69 22.5 24.65C22.46 24.64 22.42 24.63 22.37 24.62C22.22 24.58 22.07 24.54 21.92 24.5C20.42 24.08 18.86 23.87 17.3 23.9C15.74 23.87 14.18 24.08 12.68 24.5C11.27 24.91 9.82 25.1 8.35 25.07C6.89 25.1 5.43 24.91 4.03 24.5C3.88 24.47 3.74 24.43 3.59 24.39C3.55 24.38 3.51 24.37 3.47 24.36C3.31 24.32 3.15 24.28 2.98 24.25C2.95 24.24 2.92 24.24 2.9 24.23C2.74 24.2 2.58 24.17 2.41 24.14C2.38 24.13 2.35 24.12 2.32 24.12C2.13 24.09 1.93 24.06 1.72 24.03C1.7 24.03 1.68 24.03 1.66 24.02C3.14 20.87 7.67 18.65 12.83 18.65ZM1.28 25.16L1.3 25.16C1.52 25.18 1.73 25.21 1.93 25.24C1.96 25.24 1.99 25.25 2.02 25.25C2.21 25.28 2.39 25.32 2.56 25.35C2.6 25.36 2.63 25.37 2.67 25.37C2.83 25.41 3 25.45 3.16 25.49C3.19 25.5 3.23 25.5 3.27 25.51C3.42 25.55 3.58 25.59 3.73 25.63C5.24 26.06 6.79 26.26 8.35 26.24C9.91 26.26 11.47 26.06 12.97 25.63C14.38 25.23 15.84 25.04 17.3 25.07C18.76 25.04 20.22 25.23 21.63 25.63C21.73 25.66 21.84 25.69 21.94 25.71C21.98 25.72 22.02 25.73 22.06 25.74C22.13 25.76 22.21 25.78 22.28 25.8C22.32 25.81 22.37 25.82 22.41 25.83C22.48 25.84 22.56 25.86 22.63 25.88C22.68 25.89 22.72 25.9 22.77 25.91C22.85 25.92 22.92 25.94 23 25.95C23.05 25.96 23.1 25.97 23.15 25.98C23.23 26 23.32 26.01 23.4 26.03C23.45 26.03 23.5 26.04 23.56 26.05C23.65 26.06 23.74 26.08 23.84 26.09C23.89 26.1 23.94 26.1 23.99 26.11C24.11 26.12 24.22 26.14 24.34 26.15C24.38 26.15 24.43 26.16 24.47 26.16L24.49 26.16C24.49 26.18 24.49 26.19 24.49 26.2C24.49 26.58 24.45 26.95 24.36 27.31L24.33 27.31C24.11 27.29 23.91 27.26 23.71 27.23C23.68 27.23 23.65 27.22 23.62 27.22C23.43 27.19 23.26 27.15 23.08 27.12C23.05 27.11 23.01 27.1 22.97 27.1C22.81 27.06 22.65 27.02 22.49 26.98C22.45 26.98 22.42 26.97 22.38 26.96C22.22 26.92 22.07 26.88 21.92 26.84C20.42 26.41 18.86 26.21 17.3 26.24C15.74 26.21 14.18 26.41 12.68 26.84C11.27 27.24 9.82 27.43 8.35 27.4C6.89 27.43 5.43 27.24 4.02 26.84C3.92 26.81 3.81 26.78 3.7 26.76C3.67 26.75 3.64 26.74 3.61 26.73C3.53 26.71 3.45 26.69 3.37 26.67C3.33 26.66 3.28 26.65 3.24 26.64C3.17 26.63 3.1 26.61 3.03 26.59C2.98 26.58 2.93 26.57 2.87 26.56C2.8 26.55 2.73 26.53 2.66 26.52C2.6 26.51 2.55 26.5 2.49 26.49C2.42 26.47 2.34 26.46 2.27 26.45C2.21 26.44 2.15 26.43 2.09 26.42C2.01 26.41 1.93 26.4 1.84 26.38C1.78 26.38 1.72 26.37 1.65 26.36C1.56 26.35 1.46 26.34 1.37 26.33C1.3 26.32 1.24 26.32 1.18 26.31L1.16 26.31C1.16 26.27 1.16 26.24 1.16 26.2C1.16 25.85 1.2 25.5 1.28 25.16Z" fill="#FFFFFF" fill-opacity="1.000000" fill-rule="nonzero"/>
</svg>
