<svg width="34.975708" height="35.000000" viewBox="0 0 34.9757 35" fill="none" xmlns="http://www.w3.org/2000/svg" xmlns:xlink="http://www.w3.org/1999/xlink">
	<desc>
			Created with Pixso.
	</desc>
	<defs>
		<clipPath id="clip4_136">
			<rect id="coffee-beans" rx="0.000000" width="33.975712" height="34.000000" transform="translate(0.500000 0.500000)" fill="white" fill-opacity="0"/>
		</clipPath>
	</defs>
	<rect id="coffee-beans" rx="0.000000" width="33.975712" height="34.000000" transform="translate(0.500000 0.500000)" fill="#FFFFFF" fill-opacity="0"/>
	<g clip-path="url(#clip4_136)">
		<path id="Vector" d="M0.05 26.98C0.6 31.54 6.09 34.98 12.83 34.98C18.88 34.98 24.03 32.18 25.34 28.18L25.34 28.17C25.55 27.56 25.65 26.91 25.66 26.26C25.65 26.06 25.64 25.87 25.62 25.67L25.61 25.61L25.61 25.61C25.37 23.88 24.52 22.3 23.2 21.16C24.7 21.81 26.31 22.17 27.94 22.2C29.3 22.22 30.64 21.89 31.82 21.22L31.82 21.22C32.28 20.96 32.69 20.65 33.07 20.28C33.35 20 33.6 19.68 33.81 19.35L33.81 19.35C36.27 15.64 34.7 9.42 30.15 4.87C25.94 0.65 20.15 -1.06 16.38 0.79C15.78 1.08 15.23 1.48 14.75 1.95C14.57 2.13 14.41 2.32 14.26 2.52L14.26 2.52C11.46 6.13 12.95 12.65 17.66 17.37C18.13 17.83 18.62 18.27 19.13 18.68C17.12 17.92 14.98 17.53 12.83 17.54C6.81 17.54 1.53 20.43 0.28 24.41C0.09 25.01 0 25.63 0 26.26C0 26.5 0.02 26.74 0.05 26.98L0.05 26.98ZM12.83 33.81C7.15 33.81 2.31 31.12 1.35 27.56C1.37 27.56 1.39 27.56 1.42 27.56C1.62 27.59 1.82 27.61 2.01 27.64C2.03 27.65 2.06 27.65 2.09 27.66C2.26 27.68 2.42 27.72 2.58 27.75C2.61 27.75 2.64 27.76 2.66 27.77C2.83 27.8 3 27.84 3.16 27.88C3.2 27.89 3.23 27.9 3.26 27.91C3.42 27.94 3.57 27.98 3.73 28.02C5.23 28.45 6.79 28.65 8.35 28.63C9.91 28.65 11.47 28.45 12.97 28.02C14.38 27.62 15.84 27.43 17.3 27.46C18.76 27.43 20.22 27.62 21.62 28.02C21.77 28.06 21.92 28.1 22.07 28.14C22.1 28.15 22.14 28.15 22.17 28.16C22.33 28.2 22.5 28.24 22.67 28.28C22.69 28.28 22.71 28.29 22.73 28.29C22.89 28.33 23.05 28.36 23.22 28.39C23.25 28.39 23.28 28.4 23.31 28.4C23.5 28.44 23.7 28.46 23.9 28.49C23.92 28.49 23.94 28.5 23.96 28.5C22.45 31.62 17.93 33.81 12.83 33.81ZM29.33 5.69C33.15 9.52 34.75 14.75 33.22 18.03C33.2 18.01 33.19 17.99 33.17 17.97C33.02 17.79 32.87 17.62 32.75 17.45C32.73 17.43 32.73 17.42 32.71 17.4C32.59 17.24 32.48 17.09 32.38 16.94C32.36 16.91 32.34 16.89 32.33 16.86C32.22 16.71 32.12 16.55 32.03 16.4C32.01 16.37 31.99 16.35 31.97 16.32C31.88 16.17 31.79 16.02 31.7 15.87C30.92 14.52 29.94 13.29 28.8 12.22C27.7 11.11 26.44 10.18 25.07 9.44C23.78 8.75 22.6 7.87 21.57 6.83C20.5 5.84 19.59 4.69 18.86 3.42C18.79 3.3 18.71 3.17 18.63 3.05L18.58 2.95C18.49 2.82 18.41 2.68 18.32 2.55C18.31 2.53 18.3 2.52 18.29 2.5C18.2 2.38 18.12 2.25 18.02 2.12C18 2.09 17.98 2.06 17.96 2.03C17.85 1.88 17.74 1.73 17.62 1.58C17.61 1.57 17.61 1.56 17.6 1.55C20.93 0.43 25.72 2.08 29.33 5.69ZM15.57 2.77C15.85 2.5 16.17 2.25 16.5 2.05C16.51 2.07 16.52 2.08 16.53 2.09C16.66 2.24 16.78 2.39 16.89 2.54C16.9 2.56 16.92 2.59 16.94 2.61C17.05 2.76 17.15 2.9 17.25 3.04C17.26 3.07 17.28 3.1 17.3 3.13C17.39 3.27 17.48 3.4 17.57 3.54C17.58 3.56 17.6 3.59 17.61 3.61C17.7 3.75 17.78 3.89 17.86 4.02C18.64 5.38 19.62 6.6 20.76 7.67C21.86 8.78 23.12 9.72 24.49 10.45C25.78 11.14 26.96 12.02 27.99 13.06C29.06 14.06 29.97 15.21 30.7 16.48C30.76 16.58 30.82 16.68 30.88 16.78C30.91 16.81 30.93 16.85 30.95 16.88C30.99 16.95 31.03 17.02 31.08 17.09C31.1 17.13 31.13 17.17 31.16 17.21C31.2 17.28 31.24 17.34 31.29 17.41C31.32 17.45 31.35 17.5 31.38 17.55C31.42 17.61 31.47 17.68 31.52 17.74C31.55 17.79 31.59 17.84 31.62 17.89C31.67 17.96 31.72 18.02 31.77 18.09C31.81 18.14 31.85 18.2 31.89 18.25C31.95 18.32 32 18.39 32.06 18.46C32.1 18.51 32.15 18.57 32.2 18.63C32.26 18.7 32.32 18.78 32.39 18.85C32.44 18.91 32.49 18.97 32.54 19.03C32.55 19.04 32.56 19.06 32.58 19.07C32.47 19.21 32.36 19.33 32.24 19.46C32.05 19.64 31.85 19.81 31.63 19.96L31.61 19.94C31.57 19.9 31.54 19.86 31.5 19.82C31.43 19.74 31.37 19.66 31.31 19.59C31.27 19.54 31.23 19.49 31.19 19.45C31.14 19.38 31.09 19.31 31.04 19.25C31 19.2 30.97 19.16 30.93 19.11C30.89 19.05 30.84 18.99 30.8 18.93C30.77 18.88 30.73 18.84 30.7 18.8C30.66 18.74 30.62 18.68 30.58 18.62C30.55 18.58 30.52 18.54 30.5 18.49C30.46 18.43 30.42 18.37 30.38 18.31C30.35 18.27 30.33 18.24 30.31 18.2C30.26 18.13 30.22 18.07 30.18 18C30.16 17.97 30.14 17.94 30.12 17.91C30.07 17.81 30.01 17.72 29.95 17.62C29.17 16.27 28.19 15.04 27.05 13.97C25.95 12.87 24.69 11.93 23.32 11.19C22.03 10.5 20.85 9.62 19.82 8.58C18.75 7.59 17.84 6.43 17.11 5.17C17.02 5.02 16.93 4.87 16.83 4.72C16.81 4.69 16.79 4.65 16.77 4.62C16.68 4.47 16.58 4.31 16.47 4.15C16.44 4.12 16.42 4.08 16.4 4.05C16.29 3.89 16.16 3.72 16.03 3.54C16.01 3.51 15.99 3.48 15.96 3.45C15.82 3.27 15.67 3.07 15.49 2.87L15.49 2.86C15.51 2.83 15.54 2.8 15.57 2.77ZM18.49 16.54C14.45 12.49 12.92 7.09 14.78 3.84C14.79 3.85 14.81 3.87 14.82 3.89C14.95 4.04 15.06 4.19 15.17 4.34C15.19 4.36 15.21 4.39 15.23 4.42C15.32 4.55 15.41 4.68 15.5 4.8C15.51 4.82 15.53 4.85 15.54 4.87C15.64 5.01 15.73 5.15 15.81 5.29C15.83 5.32 15.85 5.34 15.87 5.37C15.95 5.51 16.03 5.64 16.11 5.77C16.89 7.13 17.87 8.36 19.01 9.42C20.11 10.53 21.37 11.47 22.74 12.21C24.03 12.89 25.21 13.77 26.24 14.81C27.31 15.81 28.22 16.96 28.95 18.23C29.04 18.38 29.14 18.53 29.23 18.68C29.25 18.71 29.27 18.75 29.3 18.78C29.39 18.94 29.5 19.1 29.61 19.26C29.63 19.29 29.65 19.33 29.68 19.36C29.79 19.53 29.91 19.7 30.05 19.87L30.06 19.9C30.2 20.08 30.36 20.27 30.52 20.46C30.54 20.49 30.56 20.51 30.58 20.54C27.27 21.91 22.23 20.28 18.49 16.54ZM12.83 18.7C18.55 18.7 23.4 21.43 24.32 25.03C24.3 25.02 24.28 25.02 24.25 25.02C24.04 25 23.84 24.97 23.65 24.94C23.63 24.94 23.6 24.93 23.58 24.93C23.41 24.9 23.24 24.87 23.08 24.83C23.05 24.83 23.02 24.82 22.99 24.82C22.82 24.78 22.66 24.74 22.5 24.7C22.46 24.69 22.42 24.68 22.37 24.67C22.22 24.63 22.07 24.6 21.92 24.56C20.42 24.13 18.86 23.93 17.3 23.96C15.74 23.93 14.18 24.13 12.68 24.56C11.27 24.96 9.82 25.15 8.35 25.12C6.89 25.15 5.43 24.96 4.03 24.56C3.88 24.52 3.74 24.48 3.59 24.45C3.55 24.44 3.51 24.43 3.47 24.42C3.31 24.38 3.15 24.34 2.98 24.3C2.95 24.3 2.92 24.29 2.9 24.28C2.74 24.25 2.58 24.22 2.41 24.19C2.38 24.18 2.35 24.18 2.32 24.17C2.13 24.14 1.93 24.11 1.72 24.09C1.7 24.08 1.68 24.08 1.66 24.08C3.14 20.93 7.67 18.7 12.83 18.7ZM1.28 25.21L1.3 25.21C1.52 25.24 1.73 25.26 1.93 25.29C1.96 25.3 1.99 25.3 2.02 25.31C2.21 25.34 2.39 25.37 2.56 25.41C2.6 25.41 2.63 25.42 2.67 25.43C2.83 25.46 3 25.5 3.16 25.54C3.19 25.55 3.23 25.56 3.27 25.57C3.42 25.61 3.58 25.65 3.73 25.69C5.24 26.12 6.79 26.32 8.35 26.29C9.91 26.32 11.47 26.12 12.97 25.69C14.38 25.28 15.84 25.09 17.3 25.12C18.76 25.09 20.22 25.28 21.63 25.69C21.73 25.71 21.84 25.74 21.94 25.77C21.98 25.78 22.02 25.79 22.06 25.8C22.13 25.82 22.21 25.83 22.28 25.85C22.32 25.86 22.37 25.87 22.41 25.88C22.48 25.9 22.56 25.92 22.63 25.93C22.68 25.94 22.72 25.95 22.77 25.96C22.85 25.98 22.92 25.99 23 26.01C23.05 26.02 23.1 26.03 23.15 26.04C23.23 26.05 23.32 26.07 23.4 26.08C23.45 26.09 23.5 26.1 23.56 26.11C23.65 26.12 23.74 26.13 23.84 26.15C23.89 26.15 23.94 26.16 23.99 26.17C24.11 26.18 24.22 26.19 24.34 26.2C24.38 26.21 24.43 26.21 24.47 26.22L24.49 26.22C24.49 26.23 24.49 26.24 24.49 26.26C24.49 26.63 24.45 27.01 24.36 27.37L24.33 27.37C24.11 27.34 23.91 27.32 23.71 27.29C23.68 27.28 23.65 27.28 23.62 27.27C23.43 27.24 23.26 27.21 23.08 27.17C23.05 27.17 23.01 27.16 22.97 27.15C22.81 27.12 22.65 27.08 22.49 27.04C22.45 27.03 22.42 27.02 22.38 27.01C22.22 26.97 22.07 26.93 21.92 26.89C20.42 26.46 18.86 26.26 17.3 26.29C15.74 26.26 14.18 26.46 12.68 26.89C11.27 27.3 9.82 27.49 8.35 27.46C6.89 27.49 5.43 27.3 4.02 26.89C3.92 26.87 3.81 26.84 3.7 26.81C3.67 26.8 3.64 26.8 3.61 26.79C3.53 26.77 3.45 26.75 3.37 26.73C3.33 26.72 3.28 26.71 3.24 26.7C3.17 26.68 3.1 26.67 3.03 26.65C2.98 26.64 2.93 26.63 2.87 26.62C2.8 26.6 2.73 26.59 2.66 26.57C2.6 26.56 2.55 26.55 2.49 26.54C2.42 26.53 2.34 26.52 2.27 26.5C2.21 26.49 2.15 26.48 2.09 26.47C2.01 26.46 1.93 26.45 1.84 26.44C1.78 26.43 1.72 26.42 1.65 26.41C1.56 26.4 1.46 26.39 1.37 26.38C1.3 26.38 1.24 26.37 1.18 26.37L1.16 26.36C1.16 26.33 1.16 26.29 1.16 26.26C1.16 25.91 1.2 25.55 1.28 25.21Z" fill="#000000" fill-opacity="1.000000" fill-rule="nonzero"/>
		<path id="Vector" d="M6.68 30.11C6.44 29.99 6.21 29.86 6 29.72C5.72 29.55 5.36 29.63 5.19 29.91C5.02 30.18 5.1 30.54 5.37 30.71C5.62 30.86 5.87 31.01 6.14 31.15C6.43 31.3 6.78 31.19 6.93 30.9C7.08 30.61 6.96 30.26 6.68 30.11Z" fill="#000000" fill-opacity="1.000000" fill-rule="nonzero"/>
		<path id="Vector" d="M20.43 29.16C18.61 30.63 15.84 31.48 12.83 31.48C11.3 31.49 9.79 31.26 8.34 30.8C8.03 30.7 7.71 30.87 7.61 31.18C7.51 31.48 7.67 31.81 7.98 31.91C9.55 32.41 11.18 32.66 12.83 32.65C16.1 32.65 19.14 31.71 21.16 30.07C21.41 29.87 21.45 29.5 21.25 29.25C21.05 29 20.68 28.96 20.43 29.16Z" fill="#000000" fill-opacity="1.000000" fill-rule="nonzero"/>
		<path id="Vector" d="M16.67 9.21C16.61 8.98 16.55 8.75 16.51 8.53C16.45 8.21 16.14 8.01 15.82 8.07C15.51 8.13 15.3 8.44 15.37 8.76C15.42 9.01 15.48 9.26 15.55 9.52C15.64 9.83 15.96 10.01 16.27 9.93C16.58 9.84 16.76 9.52 16.67 9.21Z" fill="#000000" fill-opacity="1.000000" fill-rule="nonzero"/>
		<path id="Vector" d="M28.11 19.29C28.13 18.97 27.88 18.69 27.56 18.67C25.16 18.52 22.32 17.07 20.14 14.89C19.04 13.8 18.12 12.55 17.43 11.16C17.29 10.88 16.94 10.76 16.65 10.9C16.36 11.04 16.24 11.39 16.39 11.68C17.14 13.18 18.12 14.54 19.31 15.71C21.72 18.13 24.78 19.67 27.49 19.83C27.5 19.83 27.52 19.83 27.53 19.83C27.83 19.83 28.09 19.59 28.11 19.29Z" fill="#000000" fill-opacity="1.000000" fill-rule="nonzero"/>
	</g>
</svg>
