<svg width="207.861267" height="37.302002" viewBox="0 0 207.861 37.302" fill="none" xmlns="http://www.w3.org/2000/svg" xmlns:xlink="http://www.w3.org/1999/xlink">
	<desc>
			Created with Pixso.
	</desc>
	<defs>
		<filter id="filter_4_68_dd" x="84.941040" y="0.000000" width="37.281677" height="37.302002" filterUnits="userSpaceOnUse" color-interpolation-filters="sRGB">
			<feFlood flood-opacity="0" result="BackgroundImageFix"/>
			<feColorMatrix in="SourceAlpha" type="matrix" values="0 0 0 0 0 0 0 0 0 0 0 0 0 0 0 0 0 0 127 0" result="hardAlpha"/>
			<feOffset dx="0" dy="4"/>
			<feGaussianBlur stdDeviation="1.33333"/>
			<feComposite in2="hardAlpha" operator="out" k2="-1" k3="1"/>
			<feColorMatrix type="matrix" values="0 0 0 0 0 0 0 0 0 0 0 0 0 0 0 0 0 0 0.25 0"/>
			<feBlend mode="normal" in2="BackgroundImageFix" result="effect_dropShadow_1"/>
			<feBlend mode="normal" in="SourceGraphic" in2="effect_dropShadow_1" result="shape"/>
		</filter>
		<clipPath id="clip4_50">
			<rect rx="0.000000" width="28.281668" height="28.302002" transform="translate(89.441040 0.500000)" fill="white" fill-opacity="0"/>
		</clipPath>
		<filter id="filter_4_69_dd" x="0.000000" y="12.000000" width="67.958374" height="9.000000" filterUnits="userSpaceOnUse" color-interpolation-filters="sRGB">
			<feFlood flood-opacity="0" result="BackgroundImageFix"/>
			<feColorMatrix in="SourceAlpha" type="matrix" values="0 0 0 0 0 0 0 0 0 0 0 0 0 0 0 0 0 0 127 0" result="hardAlpha"/>
			<feOffset dx="0" dy="2"/>
			<feGaussianBlur stdDeviation="1.33333"/>
			<feComposite in2="hardAlpha" operator="out" k2="-1" k3="1"/>
			<feColorMatrix type="matrix" values="0 0 0 0 0 0 0 0 0 0 0 0 0 0 0 0 0 0 0.25 0"/>
			<feBlend mode="normal" in2="BackgroundImageFix" result="effect_dropShadow_1"/>
			<feBlend mode="normal" in="SourceGraphic" in2="effect_dropShadow_1" result="shape"/>
		</filter>
		<filter id="filter_4_70_dd" x="139.902893" y="12.000000" width="67.958374" height="9.000000" filterUnits="userSpaceOnUse" color-interpolation-filters="sRGB">
			<feFlood flood-opacity="0" result="BackgroundImageFix"/>
			<feColorMatrix in="SourceAlpha" type="matrix" values="0 0 0 0 0 0 0 0 0 0 0 0 0 0 0 0 0 0 127 0" result="hardAlpha"/>
			<feOffset dx="0" dy="2"/>
			<feGaussianBlur stdDeviation="1.33333"/>
			<feComposite in2="hardAlpha" operator="out" k2="-1" k3="1"/>
			<feColorMatrix type="matrix" values="0 0 0 0 0 0 0 0 0 0 0 0 0 0 0 0 0 0 0.25 0"/>
			<feBlend mode="normal" in2="BackgroundImageFix" result="effect_dropShadow_1"/>
			<feBlend mode="normal" in="SourceGraphic" in2="effect_dropShadow_1" result="shape"/>
		</filter>
	</defs>
	<g filter="url(#filter_4_68_dd)">
		<rect rx="0.000000" width="28.281668" height="28.302002" transform="translate(89.441040 0.500000)" fill="#FFFFFF" fill-opacity="0"/>
		<g clip-path="url(#clip4_50)">
			<path d="M94.32 26.55C92.97 24.16 93.89 20.41 96.69 17.61C99.87 14.43 104.26 13.67 106.51 15.92C106.51 15.92 106.51 15.92 106.52 15.93C106.07 17.23 104.64 20.02 100.35 21.52C96.42 22.9 94.91 25.09 94.32 26.55ZM105.19 19.59C104.16 20.61 102.7 21.62 100.64 22.35C96.45 23.82 95.28 26.22 94.95 27.39C94.97 27.4 94.98 27.42 94.99 27.44C97.24 29.68 101.64 28.92 104.81 25.74C107.64 22.91 108.55 19.12 107.14 16.73C106.8 17.53 106.21 18.56 105.19 19.59ZM96.52 9.24C101.04 9.64 103.49 7.69 104.44 6.69C104.44 6.68 104.43 6.68 104.43 6.67C103.31 3.7 99 2.58 94.79 4.17C91.09 5.57 88.7 8.6 88.95 11.33C90.09 10.25 92.37 8.88 96.52 9.24ZM98.85 14.93C102.59 13.52 104.98 10.43 104.67 7.68C104.04 8.26 103.07 8.96 101.72 9.47C100.36 9.99 98.62 10.3 96.44 10.11C92.02 9.72 89.96 11.44 89.18 12.36C89.19 12.38 89.19 12.4 89.2 12.42C90.32 15.4 94.64 16.52 98.85 14.93ZM111.95 8.73C114.66 5.09 114.29 1.98 113.93 0.64C113.93 0.64 113.93 0.64 113.92 0.64C110.81 0.03 107.59 3.12 106.73 7.54C105.97 11.43 107.3 15.05 109.75 16.27C109.43 14.74 109.46 12.07 111.95 8.73ZM114.9 0.97C115.06 1.82 115.15 3.01 114.88 4.42C114.6 5.85 113.95 7.5 112.65 9.26C109.99 12.82 110.37 15.47 110.75 16.62C110.77 16.62 110.79 16.63 110.81 16.63C113.93 17.24 117.15 14.15 118.01 9.74C118.77 5.81 117.41 2.15 114.9 0.97Z" fill="#FFFFFF" fill-opacity="1.000000" fill-rule="nonzero"/>
		</g>
	</g>
	<g filter="url(#filter_4_69_dd)">
		<line x1="4.000000" y1="14.500000" x2="63.958374" y2="14.500000" stroke="#FFFFFF" stroke-opacity="1.000000" stroke-width="1.000000"/>
	</g>
	<g filter="url(#filter_4_70_dd)">
		<line x1="143.902893" y1="14.500000" x2="203.861267" y2="14.500000" stroke="#FFFFFF" stroke-opacity="1.000000" stroke-width="1.000000"/>
	</g>
</svg>
