<svg width="199.861206" height="29.302002" viewBox="0 0 199.861 29.302" fill="none" xmlns="http://www.w3.org/2000/svg" xmlns:xlink="http://www.w3.org/1999/xlink">
	<desc>
			Created with Pixso.
	</desc>
	<defs>
		<clipPath id="clip4_87">
			<rect rx="0.000000" width="28.281668" height="28.302002" transform="translate(85.441040 0.500000)" fill="white" fill-opacity="0"/>
		</clipPath>
	</defs>
	<rect rx="0.000000" width="28.281668" height="28.302002" transform="translate(85.441040 0.500000)" fill="#FFFFFF" fill-opacity="0"/>
	<g clip-path="url(#clip4_87)">
		<path d="M90.32 26.55C88.97 24.16 89.89 20.41 92.69 17.61C95.87 14.43 100.26 13.67 102.51 15.92C102.51 15.92 102.51 15.92 102.52 15.93C102.07 17.23 100.64 20.02 96.35 21.52C92.42 22.9 90.91 25.09 90.32 26.55ZM101.19 19.59C100.16 20.61 98.7 21.62 96.64 22.35C92.45 23.82 91.28 26.22 90.95 27.39C90.97 27.4 90.98 27.42 90.99 27.44C93.24 29.68 97.63 28.92 100.81 25.74C103.64 22.91 104.55 19.12 103.14 16.73C102.8 17.53 102.21 18.56 101.19 19.59ZM92.52 9.24C97.04 9.64 99.49 7.69 100.44 6.69C100.44 6.68 100.43 6.68 100.43 6.67C99.31 3.7 95 2.58 90.79 4.17C87.09 5.57 84.7 8.6 84.95 11.33C86.09 10.25 88.37 8.88 92.52 9.24ZM94.85 14.93C98.59 13.52 100.98 10.43 100.67 7.68C100.04 8.26 99.07 8.96 97.72 9.47C96.36 9.99 94.62 10.3 92.44 10.11C88.02 9.72 85.96 11.44 85.18 12.36C85.19 12.38 85.19 12.4 85.2 12.42C86.32 15.4 90.64 16.52 94.85 14.93ZM107.95 8.73C110.66 5.09 110.29 1.98 109.93 0.64C109.93 0.64 109.93 0.64 109.92 0.64C106.81 0.03 103.59 3.12 102.73 7.54C101.97 11.43 103.3 15.05 105.75 16.27C105.43 14.74 105.46 12.07 107.95 8.73ZM110.9 0.97C111.06 1.82 111.15 3.01 110.88 4.42C110.6 5.85 109.95 7.5 108.65 9.26C105.99 12.82 106.37 15.47 106.75 16.62C106.77 16.62 106.79 16.63 106.81 16.63C109.93 17.24 113.15 14.15 114.01 9.74C114.77 5.81 113.41 2.15 110.9 0.97Z" fill="#000000" fill-opacity="1.000000" fill-rule="nonzero"/>
	</g>
	<line x1="0.000000" y1="14.500000" x2="59.958374" y2="14.500000" stroke="#000000" stroke-opacity="1.000000" stroke-width="1.000000"/>
	<line x1="139.902832" y1="14.500000" x2="199.861206" y2="14.500000" stroke="#000000" stroke-opacity="1.000000" stroke-width="1.000000"/>
</svg>
